<svg height="470" viewBox="0 0 570 470" width="570" xml:space="preserve" xmlns="http://www.w3.org/2000/svg"><g transform="translate(0 91)"><path d="m242.29402 30.327258s-106.45289.178573-159.679358.151309c-25.575694-.0131-76.7269435-.151309-76.7269435-.151309-1.4002952-.0028-5.00106377 2.147724-5.00106377 4.88119v78.368262c0 2.73346 2.20046807 4.88119 5.00106377 4.88119h47.1901435c2.800596 0 5.001064 2.14772 5.001064 4.88119v20.80877c-.160487.3996 421.362994 3.0619 421.362994 3.0619v-23.87067c0-2.73347 2.20047-4.88119 5.00107-4.88119h50.43874c2.8006 0 5.00106-2.14773 5.00106-4.88119v-78.368262c0-2.733466-2.20046-4.88119-5.00106-4.88119h-237.17592" fill="#25b7eb"/><text fill="#117d99" font-family="sans-serif" font-size="40" letter-spacing="0" word-spacing="0" x="251.51445" y="54.589058"><tspan fill="#fff" font-family="Fixed" font-size="17.5" x="251.51445" y="54.589058">Leaf</tspan></text></g><g transform="translate(0 91)"><path d="m537.2 133.26637c-65.91962 0-56.10908-.0358-79.02408-.0358l-8.77592.0358h33.68394v-5.81773c0-5.72768-2.2-4.39307-5-4.39307h-418.203479c-2.686518 0-5-.0556-5 4.39307v6.51793c-77.11408 0 54.470939 5.45749 33.460643-.68296l-11.341104-.01724h-71.6c-2.8 0-5 4.50032-5 10.22799v71.85305c0 5.72768 2.2 10.22799 5 10.22799h19.8v19.58516h5.4v-10.76228l10.9.22697v10.53531l5.663286 16.00855v-30.4794h14.2l.03671 14.47085h5.4v-9.93008l10.9.30262v9.62746h5.7l-.03671-14.47085h14.2l.03671 14.47085h5.400004v-10.53531l10.61573-.10178.28427 10.63709h5.7l-.0367-14.47085h14.2l.0367 14.47085h5.4v-10.76228h10.8v10.76228h5.7l-.0367-14.3952 14.2-.0756.0367 14.47085h5.4v-10.76228h10.9v10.76228h5.7l-.0367-14.47085h14.2l.0367 14.47085h5.4v-10.76228h10.9v10.76228h5.7l-.0367-14.41828 14.2-.0526.0367 14.47085h5.4v-10.76228h10.9v10.76228h5.7l-.0367-14.47085h14.2l.0367 14.47085h5.4v-10.76228h10.9v10.76228h5.7l-.0367-14.47085h14.2l.0367 14.47085h5.4v-10.76228h10.9v10.76228h5.7l-.0367-14.47085h14.2l.0367 14.47085h5.4v-10.76228h10.9v10.76228h5.7l-.0367-14.47085h14.1l.0367 14.47085h5.4v-10.76228h10.9v10.76228h5.7l-.0367-14.47085h14.2l.0367 14.47085h5.4v-10.76228h10.9v10.76228h5.7l-.0367-14.47085h14.2l.0367 14.47085h5.4v-10.76228h10.9v10.76228h5.7l-.0367-14.47085h14.2l.0367 17.57268h5.4v-13.86411h10.9v13.86411h5.7v-22.68699h19.7c2.8 0 5-4.50031 5-10.22799v-71.85305c-.1-5.72767-2.3-10.22799-5.1-10.22799z" fill="#e3ddaf"/><text fill="#d9d08f" font-family="sans-serif" font-size="40" letter-spacing="0" word-spacing="0" x="220.52594" y="144.73294"><tspan fill="#bdaf51" font-family="Fixed" font-size="17.5" x="220.52594" y="144.73294">Collenchyma</tspan></text><text fill="#004c6b" font-family="sans-serif" font-size="40" letter-spacing="0" word-spacing="0" x="54.773193" y="191.36296"><tspan fill="#bdaf51" font-family="Fixed" font-size="12.5" x="54.773193" y="191.36296">Plugins</tspan></text><g transform="translate(30.867016 7.262827)"><path d="m94.595032 159.89371h144.89999v20.6h-144.89999z" fill="#bdaf51"/><text fill="#004c6b" font-family="sans-serif" font-size="40" letter-spacing="0" word-spacing="0" x="117.10435" y="174.85268"><tspan fill="#fff" font-family="Fixed" font-size="12.5" x="117.10435" y="174.85268">BLAS Operations</tspan></text></g><g transform="translate(30.687956 31.769119)"><path d="m94.595032 159.89371h144.89999v20.6h-144.89999z" fill="#bdaf51"/><text fill="#004c6b" font-family="sans-serif" font-size="40" letter-spacing="0" word-spacing="0" x="117.10435" y="174.85268"><tspan fill="#fff" font-family="Fixed" font-size="12.5" x="117.10435" y="174.85268">ANN Operations</tspan></text></g><g transform="translate(179.75497 7.868073)"><path d="m94.595032 159.89371h144.89999v20.6h-144.89999z" fill="#bdaf51"/><text fill="#004c6b" font-family="sans-serif" font-size="40" letter-spacing="0" word-spacing="0" x="117.10435" y="174.85268"><tspan fill="#fff" font-family="Fixed" font-size="12.5" x="117.10435" y="174.85268">FFT Operations</tspan></text></g><g transform="translate(179.72141 31.769119)"><path d="m94.595032 159.89371h144.89999v20.6h-144.89999z" fill="#bdaf51"/><text fill="#004c6b" font-family="sans-serif" font-size="40" letter-spacing="0" word-spacing="0" x="117.10435" y="174.85268"><tspan fill="#fff" font-family="Fixed" font-size="12.5" x="117.10435" y="174.85268">Math Operations</tspan></text></g></g><path d="m367.1 175.4h-10.9v14.2h-25.2v-14.2h-11v14.2h-25.2v-14.2h-11v14.2h-25.2v-14.2h-10.9v14.2h-25.3v-14.2h-10.9v14.2h-25.3v-14.2h-10.9v14.2h-25.3v-14.2h-10.9v14.2h-25.2v-14.2h-11v14.2h-25.2v-14.2h-11v14.2h-25.2v-14.2h-10.9v14.2h-30.3v189.3h541.8v-189.3h-30.2v-14.2h-11v14.2h-25.2v-14.2h-11v14.2h-25.2v-14.2h-10.9v14.2h-25.3v-14.2h-10.9v14.2h-25.3z" fill="#40627f" transform="matrix(1 0 0 .71745758 0 198.05532)"/><g transform="translate(0 91)"><path d="m8.9 201h524.59998v102.63403h-524.59998z" fill="#004c6b" transform="matrix(1 0 0 .52234086 0 211.03357)"/><text font-family="sans-serif" font-size="40" letter-spacing="0" word-spacing="0" x="210.57376" xml:space="preserve" y="334.56711"><tspan fill="#fff" font-family="Fixed" font-size="15" x="210.57376" y="334.56711">    Hardware</tspan><tspan fill="#fff" font-family="ClearlyU" font-size="10" x="210.57376" y="348.33337">(CPU, OpenCL, CUDA) </tspan></text></g><text font-family="sans-serif" font-size="40" letter-spacing="0" word-spacing="0" x="129.56381" xml:space="preserve" y="359.56992"><tspan fill="#fff" font-family="Fixed" font-size="15" x="129.56381" y="359.56992">                   Host System</tspan><tspan fill="#fff" font-family="ClearlyU" font-size="10" x="129.56381" y="373.33618">(Linux, Windows, OSX, Android, iOS, Unikernel, No OS) </tspan></text><g transform="translate(-.3 -74.073305)"><path d="m31.750874 82.754098h-14.94981c-2.800596 0-5.001064 1.72511-5.001064 3.92071v29.659802c0 2.1956 2.200468 3.92072 5.001064 3.92072h507.810756c2.8006 0 5.00106-1.72512 5.00106-3.92072v-29.659802c0-2.1956-2.20046-3.92071-5.00106-3.92071h-406.2087" fill="none" stroke="#25b7eb" stroke-dasharray="3 1"/><text fill="#25b7eb" font-family="sans-serif" font-size="40" letter-spacing="0" word-spacing="0" x="37.112274" y="85.832649"><tspan fill="#25b7eb" font-family="Fixed" font-size="13.75" x="37.112274" y="85.832649">Interfaces</tspan><tspan fill="#25b7eb" x="37.112274" y="103.02015"/></text><g transform="translate(-56.633273 -68.768713)"><path d="m94.595032 159.89371h72.271721v20.6h-72.271721z" fill="#25b7eb"/><text fill="#004c6b" font-family="sans-serif" font-size="40" letter-spacing="0" word-spacing="0" x="117.10435" y="174.85268"><tspan fill="#fff" font-family="Fixed" font-size="12.5" x="117.10435" y="174.85268">Rust</tspan></text></g><g fill="#25b7eb" fill-opacity="0" transform="translate(213.38427 -66.952993)"><path d="m-94.843719 158.078h86.192139v20.6h-86.192139z" fill="none" stroke="#25b7eb"/><text style="font-size:40;font-family:sans-serif;letter-spacing:0;word-spacing:0;fill:#25b7eb;fill-opacity:1" x="-74.755341" y="172.43173"><tspan fill="#25b7eb" fill-opacity="1" font-family="Fixed" font-size="12.5" x="-74.755341" y="172.43173">Jupyter</tspan></text></g><path d="m212.47948 90.905495h72.271721v20.6h-72.271721z" fill="none" stroke="#25b7eb"/><text fill="#25b7eb" font-family="sans-serif" font-size="40" letter-spacing="0" word-spacing="0" x="227.12074" y="105.25925"><tspan fill="#25b7eb" font-family="Fixed" font-size="12.5" x="227.12074" y="105.25925">Python</tspan></text></g><g transform="translate(-84.771227 15.616513)"><path d="m161.20918 151.09972h127.34816v35.730892h-127.34816z" fill="#118bb7"/><text fill="#004c6b" font-family="sans-serif" font-size="40" letter-spacing="0" word-spacing="0" x="176.45569" xml:space="preserve" y="166.66393"><tspan fill="#fff" font-family="Fixed" font-size="12.5" x="176.45569" y="166.66393">    Backward</tspan><tspan fill="#fff" font-family="Fixed" font-size="10" x="176.45569" y="179.79706">Learning / Training</tspan></text></g><g transform="translate(47.703286 15.616513)"><path d="m161.20918 151.09972h127.34816v35.730892h-127.34816z" fill="#118bb7"/><text fill="#004c6b" font-family="sans-serif" font-size="40" letter-spacing="0" word-spacing="0" x="176.45569" xml:space="preserve" y="166.66393"><tspan fill="#fff" font-family="Fixed" font-size="12.5" x="176.45569" y="166.66393">     Forward</tspan><tspan fill="#fff" font-family="Fixed" font-size="10" x="176.45569" y="179.79706">Knowledge Usage</tspan></text></g><g fill="#fff" transform="translate(179.41412 15.616513)"><path d="m161.23752 151.12805h142.42235v35.674202h-142.42235z" fill="#fff" stroke="#25b7eb" stroke-width="1.056691"/><text fill="#25b7eb" font-family="sans-serif" font-size="40" letter-spacing="0" word-spacing="0" x="170.58765" xml:space="preserve" y="166.66393"><tspan fill="#25b7eb" font-family="Fixed" font-size="12.5" x="170.58765" y="166.66393">     Optimization</tspan><tspan fill="#25b7eb" font-family="Fixed" font-size="10" x="170.58765" y="179.79706">Knowledge Compression</tspan></text></g><g transform="translate(4.962022 63.28073)"><path d="m48.579952 11.613324h-36.738292c-2.8005965 0-5.0010645 1.725117-5.0010645 3.920719v41.764507c0 2.1956 2.200468 3.92072 5.0010645 3.92072h156.77411c2.8006 0 5.00106-1.72512 5.00106-3.92072v-41.764507c0-2.195602-2.20046-3.920719-5.00106-3.920719h-38.83069" fill="none" stroke="#25b7eb" stroke-dasharray="3 1"/><g fill="#25b7eb" font-family="sans-serif" font-size="40" letter-spacing="0" word-spacing="0"><text x="54.24551" y="15.986764"><tspan fill="#25b7eb" font-family="Fixed" font-size="13.75" x="54.24551" y="15.986764">Extension</tspan><tspan fill="#25b7eb" x="54.24551" y="33.174263"/></text><text x="30.65484" y="40.859161"><tspan fill="#118bb7" font-family="Fixed" font-size="13.75" x="30.65484" y="40.859161">Deep Q-Learning</tspan><tspan fill="#25b7eb" x="30.65484" y="58.046661"/></text><text x="196.94157" y="40.859161"><tspan fill="#118bb7" font-family="Fixed" font-size="13.75" x="196.94157" y="40.859161">Distributed Learning</tspan><tspan fill="#25b7eb" x="196.94157" y="58.046661"/></text></g></g><g transform="translate(16.949215 57.36405)"><path d="m213.15542 17.530004h-36.73829c-2.8006 0-5.00106 1.725117-5.00106 3.920719v41.764507c0 2.1956 2.20046 3.92072 5.00106 3.92072h156.77412c2.8006 0 5.00106-1.72512 5.00106-3.92072v-41.764507c0-2.195602-2.20046-3.920719-5.00106-3.920719h-38.83069" fill="none" stroke="#25b7eb" stroke-dasharray="3 1"/><text fill="#25b7eb" font-family="sans-serif" font-size="40" letter-spacing="0" transform="translate(147.08099 22.835668)" word-spacing="0" x="75.976646" y=".643973"><tspan fill="#25b7eb" font-family="Fixed" font-size="13.75" x="75.976646" y=".643973">Extension</tspan><tspan fill="#25b7eb" x="75.976646" y="17.831472"/></text></g><g transform="translate(192.77016 57.36405)"><path d="m213.15542 17.530004h-36.73829c-2.8006 0-5.00106 1.725117-5.00106 3.920719v41.764507c0 2.1956 2.20046 3.92072 5.00106 3.92072h154.95841c2.8006 0 5.00106-1.72512 5.00106-3.92072v-41.764507c0-2.195602-2.20046-3.920719-5.00106-3.920719h-37.01498" fill="none" stroke="#25b7eb" stroke-dasharray="3 1"/><g fill="#25b7eb" font-family="sans-serif" font-size="40" letter-spacing="0" transform="translate(147.08099 22.835668)" word-spacing="0"><text x="75.976646" y=".643973"><tspan fill="#25b7eb" font-family="Fixed" font-size="13.75" x="75.976646" y=".643973">Extension</tspan><tspan fill="#25b7eb" x="75.976646" y="17.831472"/></text><text x="99.845055" y="26.21072"><tspan fill="#118bb7" font-family="Fixed" font-size="17.5" x="99.845055" y="26.21072">+</tspan></text></g></g></svg>