<svg height="400" width="700" xmlns="http://www.w3.org/2000/svg"><g fill="none"><path d="m70 74.862183a21.5 21.5 0 1 1 -43 0 21.5 21.5 0 1 1 43 0z" stroke="#000" stroke-linejoin="bevel" stroke-width="2" transform="matrix(.777777 0 0 .777777 53.7997 31.61422)"/><path d="m70 74.862183a21.5 21.5 0 1 1 -43 0 21.5 21.5 0 1 1 43 0z" stroke="#000" stroke-linejoin="bevel" stroke-width="2" transform="matrix(.777777 0 0 .777777 133.7997 31.61422)"/><path d="m70 74.862183a21.5 21.5 0 1 1 -43 0 21.5 21.5 0 1 1 43 0z" stroke="#000" stroke-linejoin="bevel" stroke-width="2" transform="matrix(.777777 0 0 .777777 133.7997 111.6142)"/><path d="m70 74.862183a21.5 21.5 0 1 1 -43 0 21.5 21.5 0 1 1 43 0z" stroke="#000" stroke-linejoin="bevel" stroke-width="2" transform="matrix(.777777 0 0 .777777 293.7997 31.61422)"/><path d="m70 74.862183a21.5 21.5 0 1 1 -43 0 21.5 21.5 0 1 1 43 0z" stroke="#000" stroke-linejoin="bevel" stroke-width="2" transform="matrix(.777777 0 0 .777777 293.7997 111.6142)"/><path d="m70 74.862183a21.5 21.5 0 1 1 -43 0 21.5 21.5 0 1 1 43 0z" stroke="#000" stroke-linejoin="bevel" stroke-width="2" transform="matrix(.777777 0 0 .777777 213.7997 111.6142)"/><path d="m70 74.862183a21.5 21.5 0 1 1 -43 0 21.5 21.5 0 1 1 43 0z" stroke="#000" stroke-linejoin="bevel" stroke-width="2" transform="matrix(.777777 0 0 .777777 213.7997 191.6142)"/><path d="m70 74.862183a21.5 21.5 0 1 1 -43 0 21.5 21.5 0 1 1 43 0z" stroke="#000" stroke-linejoin="bevel" stroke-width="2" transform="matrix(.777777 0 0 .777777 613.7997 31.61422)"/><path d="m70 74.862183a21.5 21.5 0 1 1 -43 0 21.5 21.5 0 1 1 43 0z" stroke="#000" stroke-linejoin="bevel" stroke-width="2" transform="matrix(.777777 0 0 .777777 613.7997 111.6142)"/><path d="m70 74.862183a21.5 21.5 0 1 1 -43 0 21.5 21.5 0 1 1 43 0z" stroke="#000" stroke-linejoin="bevel" stroke-width="2" transform="matrix(.777777 0 0 .777777 533.7997 111.6142)"/><path d="m70 74.862183a21.5 21.5 0 1 1 -43 0 21.5 21.5 0 1 1 43 0z" stroke="#000" stroke-linejoin="bevel" stroke-width="2" transform="matrix(.777777 0 0 .777777 533.7997 191.6142)"/><path d="m70 74.862183a21.5 21.5 0 1 1 -43 0 21.5 21.5 0 1 1 43 0z" stroke="#000" stroke-linejoin="bevel" stroke-width="2" transform="matrix(.777777 0 0 .777777 453.7997 111.6142)"/><path d="m70 74.862183a21.5 21.5 0 1 1 -43 0 21.5 21.5 0 1 1 43 0z" stroke="#000" stroke-linejoin="bevel" stroke-width="2" transform="matrix(.777777 0 0 .777777 453.7997 191.6142)"/><path d="m70 74.862183a21.5 21.5 0 1 1 -43 0 21.5 21.5 0 1 1 43 0z" stroke="#000" stroke-linejoin="bevel" stroke-width="2" transform="matrix(.777777 0 0 .777777 373.7997 191.6142)"/><path d="m70 74.862183a21.5 21.5 0 1 1 -43 0 21.5 21.5 0 1 1 43 0z" stroke="#000" stroke-linejoin="bevel" stroke-width="2" transform="matrix(.777777 0 0 .777777 373.7997 271.6142)"/><path d="m171.52188 107.34029v45.00001" stroke="#000"/><path d="m331.52188 107.34029v45.00001" stroke="#000"/><path d="m314.0219 107.34028-45.00003 45.00003" stroke="#000"/><path d="m251.52188 187.34027v45.00003" stroke="#000"/><path d="m651.52188 107.34029v45.00001" stroke="#000"/><path d="m634.0219 107.34028-45.00003 45.00003" stroke="#000"/><path d="m571.52188 187.34027v45.00003" stroke="#000"/><path d="m634.0219 98.59029-125.00003 62.5" stroke="#000"/><path d="m491.52188 187.34027v45.00003" stroke="#000"/><path d="m474.0219 187.34027-45.00003 45.00003" stroke="#000"/><path d="m411.52188 267.34027v45.00003" stroke="#000"/><path d="m144 143h53v53h-53z" stroke="#f00" stroke-dasharray="8 8" stroke-linejoin="bevel" stroke-width="2"/><path d="m304 143h53v53h-53z" stroke="#f00" stroke-dasharray="8 8" stroke-linejoin="bevel" stroke-width="2"/><path d="m624 143h53v53h-53z" stroke="#f00" stroke-dasharray="8 8" stroke-linejoin="bevel" stroke-width="2"/><path d="m224 144.50909h53v132.98181h-53z" stroke="#02ff00" stroke-dasharray="8 8" stroke-linejoin="bevel" stroke-width="2"/><path d="m544 144.50909h53v132.98181h-53z" stroke="#02ff00" stroke-dasharray="8 8" stroke-linejoin="bevel" stroke-width="2"/><path d="m387.41818 145.92728h128.16364v208.14546h-128.16364z" stroke="#0006ff" stroke-dasharray="8 8" stroke-linejoin="bevel" stroke-width="2"/></g><text fill="#656565" font-family="Arial" font-size="22" x="9" y="45"><tspan x="9" y="45">Order</tspan></text><text fill="#838383" font-family="Arial" font-size="22" x="165" y="45.746094"><tspan x="165" y="45.746094">1</tspan></text><text fill="#838383" font-family="Arial" font-size="22" x="326" y="45.746094"><tspan x="326" y="45.746094">2</tspan></text><text fill="#838383" font-family="Arial" font-size="22" x="84" y="45.746094"><tspan x="84" y="45.746094">0</tspan></text><text fill="#838383" font-family="Arial" font-size="22" x="645" y="45.746094"><tspan x="645" y="45.746094">3</tspan></text></svg>